<mxfile host="app.diagrams.net" agent="Mozilla/5.0 (Windows NT 10.0; Win64; x64; rv:136.0) Gecko/20100101 Firefox/136.0" version="26.1.1">
  <diagram name="Page-1" id="kRz6OlRiXYrh5v9FN1o7">
    <mxGraphModel dx="4947" dy="3311" grid="1" gridSize="10" guides="1" tooltips="1" connect="1" arrows="1" fold="1" page="1" pageScale="1" pageWidth="850" pageHeight="1100" math="0" shadow="0">
      <root>
        <mxCell id="0" />
        <mxCell id="1" parent="0" />
        <mxCell id="7P5oypHRxxhwJwh_hLry-13" value="Employee" style="swimlane;fontStyle=1;align=center;verticalAlign=top;childLayout=stackLayout;horizontal=1;startSize=26;horizontalStack=0;resizeParent=1;resizeParentMax=0;resizeLast=0;collapsible=1;marginBottom=0;whiteSpace=wrap;html=1;" vertex="1" parent="1">
          <mxGeometry x="-760" y="90" width="180" height="186" as="geometry" />
        </mxCell>
        <mxCell id="7P5oypHRxxhwJwh_hLry-14" value="&lt;div&gt;- idEmployee: int&lt;/div&gt;&lt;div&gt;- name: String&lt;/div&gt;&lt;div&gt;&lt;br&gt;&lt;/div&gt;" style="text;strokeColor=none;fillColor=none;align=left;verticalAlign=top;spacingLeft=4;spacingRight=4;overflow=hidden;rotatable=0;points=[[0,0.5],[1,0.5]];portConstraint=eastwest;whiteSpace=wrap;html=1;" vertex="1" parent="7P5oypHRxxhwJwh_hLry-13">
          <mxGeometry y="26" width="180" height="34" as="geometry" />
        </mxCell>
        <mxCell id="7P5oypHRxxhwJwh_hLry-15" value="" style="line;strokeWidth=1;fillColor=none;align=left;verticalAlign=middle;spacingTop=-1;spacingLeft=3;spacingRight=3;rotatable=0;labelPosition=right;points=[];portConstraint=eastwest;strokeColor=inherit;" vertex="1" parent="7P5oypHRxxhwJwh_hLry-13">
          <mxGeometry y="60" width="180" height="24" as="geometry" />
        </mxCell>
        <mxCell id="7P5oypHRxxhwJwh_hLry-16" value="&lt;div&gt;+ Employee(idEmployee: int, name: String)&lt;/div&gt;&lt;div&gt;+ setters():&lt;/div&gt;&lt;div&gt;+ getters():&lt;/div&gt;&lt;div&gt;+ hashCode(): int&lt;/div&gt;&lt;div&gt;+ equals(obj: Object): boolean&lt;/div&gt;" style="text;strokeColor=none;fillColor=none;align=left;verticalAlign=top;spacingLeft=4;spacingRight=4;overflow=hidden;rotatable=0;points=[[0,0.5],[1,0.5]];portConstraint=eastwest;whiteSpace=wrap;html=1;" vertex="1" parent="7P5oypHRxxhwJwh_hLry-13">
          <mxGeometry y="84" width="180" height="102" as="geometry" />
        </mxCell>
        <mxCell id="7P5oypHRxxhwJwh_hLry-17" value="Task" style="swimlane;fontStyle=1;align=center;verticalAlign=top;childLayout=stackLayout;horizontal=1;startSize=26;horizontalStack=0;resizeParent=1;resizeParentMax=0;resizeLast=0;collapsible=1;marginBottom=0;whiteSpace=wrap;html=1;" vertex="1" parent="1">
          <mxGeometry x="-110" y="100" width="210" height="186" as="geometry" />
        </mxCell>
        <mxCell id="7P5oypHRxxhwJwh_hLry-18" value="&lt;div&gt;- idTask: int&lt;/div&gt;&lt;div&gt;- statusTask: String&lt;/div&gt;-nameTask: String" style="text;strokeColor=none;fillColor=none;align=left;verticalAlign=top;spacingLeft=4;spacingRight=4;overflow=hidden;rotatable=0;points=[[0,0.5],[1,0.5]];portConstraint=eastwest;whiteSpace=wrap;html=1;" vertex="1" parent="7P5oypHRxxhwJwh_hLry-17">
          <mxGeometry y="26" width="210" height="40" as="geometry" />
        </mxCell>
        <mxCell id="7P5oypHRxxhwJwh_hLry-19" value="" style="line;strokeWidth=1;fillColor=none;align=left;verticalAlign=middle;spacingTop=-1;spacingLeft=3;spacingRight=3;rotatable=0;labelPosition=right;points=[];portConstraint=eastwest;strokeColor=inherit;" vertex="1" parent="7P5oypHRxxhwJwh_hLry-17">
          <mxGeometry y="66" width="210" height="2" as="geometry" />
        </mxCell>
        <mxCell id="7P5oypHRxxhwJwh_hLry-20" value="&lt;div&gt;+ Task(idTask: int, nameTask: String)&lt;/div&gt;&lt;div&gt;+ setters():&lt;/div&gt;&lt;div&gt;+ getters():&lt;/div&gt;&lt;div&gt;+ estimateDuration(): int&lt;/div&gt;&lt;div&gt;+ hashCode(): int&lt;/div&gt;&lt;div&gt;+ equals(obj: Object): boolean&lt;/div&gt;" style="text;strokeColor=none;fillColor=none;align=left;verticalAlign=top;spacingLeft=4;spacingRight=4;overflow=hidden;rotatable=0;points=[[0,0.5],[1,0.5]];portConstraint=eastwest;whiteSpace=wrap;html=1;" vertex="1" parent="7P5oypHRxxhwJwh_hLry-17">
          <mxGeometry y="68" width="210" height="118" as="geometry" />
        </mxCell>
        <mxCell id="7P5oypHRxxhwJwh_hLry-21" value="&lt;font style=&quot;font-size: 17px;&quot;&gt;&amp;lt;&amp;lt;abstract&amp;gt;&amp;gt;&lt;/font&gt;" style="text;html=1;align=center;verticalAlign=middle;whiteSpace=wrap;rounded=0;" vertex="1" parent="1">
          <mxGeometry x="-60" y="50" width="110" height="50" as="geometry" />
        </mxCell>
        <mxCell id="7P5oypHRxxhwJwh_hLry-27" value="SimpleTask" style="swimlane;fontStyle=1;align=center;verticalAlign=top;childLayout=stackLayout;horizontal=1;startSize=26;horizontalStack=0;resizeParent=1;resizeParentMax=0;resizeLast=0;collapsible=1;marginBottom=0;whiteSpace=wrap;html=1;" vertex="1" parent="1">
          <mxGeometry x="-290" y="380" width="210" height="180" as="geometry" />
        </mxCell>
        <mxCell id="7P5oypHRxxhwJwh_hLry-28" value="&lt;div&gt;- startHour: int&lt;/div&gt;&lt;div&gt;- endHour: int&lt;/div&gt;&lt;div&gt;&lt;br&gt;&lt;/div&gt;" style="text;strokeColor=none;fillColor=none;align=left;verticalAlign=top;spacingLeft=4;spacingRight=4;overflow=hidden;rotatable=0;points=[[0,0.5],[1,0.5]];portConstraint=eastwest;whiteSpace=wrap;html=1;" vertex="1" parent="7P5oypHRxxhwJwh_hLry-27">
          <mxGeometry y="26" width="210" height="34" as="geometry" />
        </mxCell>
        <mxCell id="7P5oypHRxxhwJwh_hLry-29" value="" style="line;strokeWidth=1;fillColor=none;align=left;verticalAlign=middle;spacingTop=-1;spacingLeft=3;spacingRight=3;rotatable=0;labelPosition=right;points=[];portConstraint=eastwest;strokeColor=inherit;" vertex="1" parent="7P5oypHRxxhwJwh_hLry-27">
          <mxGeometry y="60" width="210" height="20" as="geometry" />
        </mxCell>
        <mxCell id="7P5oypHRxxhwJwh_hLry-30" value="&lt;div&gt;+ SimpleTask(startHour: int, endHour: int, idTask: int, nameTask: String)&lt;/div&gt;&lt;div&gt;+ setters():&lt;/div&gt;&lt;div&gt;+ getters():&lt;/div&gt;&lt;div&gt;+ estimateDuration(): int&lt;/div&gt;" style="text;strokeColor=none;fillColor=none;align=left;verticalAlign=top;spacingLeft=4;spacingRight=4;overflow=hidden;rotatable=0;points=[[0,0.5],[1,0.5]];portConstraint=eastwest;whiteSpace=wrap;html=1;" vertex="1" parent="7P5oypHRxxhwJwh_hLry-27">
          <mxGeometry y="80" width="210" height="100" as="geometry" />
        </mxCell>
        <mxCell id="7P5oypHRxxhwJwh_hLry-33" value="ComplexTask" style="swimlane;fontStyle=1;align=center;verticalAlign=top;childLayout=stackLayout;horizontal=1;startSize=26;horizontalStack=0;resizeParent=1;resizeParentMax=0;resizeLast=0;collapsible=1;marginBottom=0;whiteSpace=wrap;html=1;" vertex="1" parent="1">
          <mxGeometry x="-60" y="360" width="210" height="180" as="geometry" />
        </mxCell>
        <mxCell id="7P5oypHRxxhwJwh_hLry-34" value="- tasks: List&amp;lt;Task&amp;gt;" style="text;strokeColor=none;fillColor=none;align=left;verticalAlign=top;spacingLeft=4;spacingRight=4;overflow=hidden;rotatable=0;points=[[0,0.5],[1,0.5]];portConstraint=eastwest;whiteSpace=wrap;html=1;" vertex="1" parent="7P5oypHRxxhwJwh_hLry-33">
          <mxGeometry y="26" width="210" height="24" as="geometry" />
        </mxCell>
        <mxCell id="7P5oypHRxxhwJwh_hLry-35" value="" style="line;strokeWidth=1;fillColor=none;align=left;verticalAlign=middle;spacingTop=-1;spacingLeft=3;spacingRight=3;rotatable=0;labelPosition=right;points=[];portConstraint=eastwest;strokeColor=inherit;" vertex="1" parent="7P5oypHRxxhwJwh_hLry-33">
          <mxGeometry y="50" width="210" height="10" as="geometry" />
        </mxCell>
        <mxCell id="7P5oypHRxxhwJwh_hLry-36" value="&lt;div&gt;+ ComplexTask(idTask: int, nameTask: String)&lt;/div&gt;&lt;div&gt;+ setters():&lt;/div&gt;&lt;div&gt;+ getters():&lt;/div&gt;&lt;div&gt;+ addTask(task: Task): void&lt;/div&gt;&lt;div&gt;+ removeTask(task: Task): void&lt;/div&gt;&lt;div&gt;+ estimateDuration(): int&lt;/div&gt;" style="text;strokeColor=none;fillColor=none;align=left;verticalAlign=top;spacingLeft=4;spacingRight=4;overflow=hidden;rotatable=0;points=[[0,0.5],[1,0.5]];portConstraint=eastwest;whiteSpace=wrap;html=1;" vertex="1" parent="7P5oypHRxxhwJwh_hLry-33">
          <mxGeometry y="60" width="210" height="120" as="geometry" />
        </mxCell>
        <mxCell id="7P5oypHRxxhwJwh_hLry-40" value="«interface»&lt;br&gt;&lt;div&gt;&lt;b&gt;Serializable&lt;/b&gt;&lt;/div&gt;" style="html=1;whiteSpace=wrap;" vertex="1" parent="1">
          <mxGeometry x="-440" y="30" width="80" height="30" as="geometry" />
        </mxCell>
        <mxCell id="7P5oypHRxxhwJwh_hLry-41" value="TasksManagement" style="swimlane;fontStyle=1;align=center;verticalAlign=top;childLayout=stackLayout;horizontal=1;startSize=26;horizontalStack=0;resizeParent=1;resizeParentMax=0;resizeLast=0;collapsible=1;marginBottom=0;whiteSpace=wrap;html=1;" vertex="1" parent="1">
          <mxGeometry x="-790" y="420" width="300" height="240" as="geometry" />
        </mxCell>
        <mxCell id="7P5oypHRxxhwJwh_hLry-42" value="- tasksMap: map&amp;lt;Employee, List&amp;lt;Tasks&amp;gt;&amp;gt;" style="text;strokeColor=none;fillColor=none;align=left;verticalAlign=top;spacingLeft=4;spacingRight=4;overflow=hidden;rotatable=0;points=[[0,0.5],[1,0.5]];portConstraint=eastwest;whiteSpace=wrap;html=1;" vertex="1" parent="7P5oypHRxxhwJwh_hLry-41">
          <mxGeometry y="26" width="300" height="24" as="geometry" />
        </mxCell>
        <mxCell id="7P5oypHRxxhwJwh_hLry-43" value="" style="line;strokeWidth=1;fillColor=none;align=left;verticalAlign=middle;spacingTop=-1;spacingLeft=3;spacingRight=3;rotatable=0;labelPosition=right;points=[];portConstraint=eastwest;strokeColor=inherit;" vertex="1" parent="7P5oypHRxxhwJwh_hLry-41">
          <mxGeometry y="50" width="300" height="10" as="geometry" />
        </mxCell>
        <mxCell id="7P5oypHRxxhwJwh_hLry-44" value="&lt;div&gt;+ TasksManagement()&lt;/div&gt;&lt;div&gt;+ setters():&lt;/div&gt;&lt;div&gt;+ getEmployees(): List&amp;lt;Employee&amp;gt;&lt;/div&gt;&lt;div&gt;+ findEmployeeById(idEmployee: int): Employee&lt;/div&gt;&lt;div&gt;+ assignTaskToEmployee(idEmployee: int, task: Task): void&lt;/div&gt;&lt;div&gt;+ calculateEmployeeWorkDuration(idEmployee: int): int&lt;/div&gt;&lt;div&gt;+ modifyTaskStatus(idEmployee: int, idTask: int, newStatus: String): void&lt;/div&gt;&lt;div&gt;+ getTasksForEmployee(idEmployee: int): List&amp;lt;Tasks&amp;gt;&lt;/div&gt;&lt;div&gt;&lt;br&gt;&lt;/div&gt;" style="text;strokeColor=none;fillColor=none;align=left;verticalAlign=top;spacingLeft=4;spacingRight=4;overflow=hidden;rotatable=0;points=[[0,0.5],[1,0.5]];portConstraint=eastwest;whiteSpace=wrap;html=1;" vertex="1" parent="7P5oypHRxxhwJwh_hLry-41">
          <mxGeometry y="60" width="300" height="180" as="geometry" />
        </mxCell>
        <mxCell id="7P5oypHRxxhwJwh_hLry-46" value="Utility" style="swimlane;fontStyle=1;align=center;verticalAlign=top;childLayout=stackLayout;horizontal=1;startSize=26;horizontalStack=0;resizeParent=1;resizeParentMax=0;resizeLast=0;collapsible=1;marginBottom=0;whiteSpace=wrap;html=1;" vertex="1" parent="1">
          <mxGeometry x="-790" y="740" width="310" height="260" as="geometry" />
        </mxCell>
        <mxCell id="7P5oypHRxxhwJwh_hLry-47" value="- tasksList: List&amp;lt;Tasks&amp;gt;" style="text;strokeColor=none;fillColor=none;align=left;verticalAlign=top;spacingLeft=4;spacingRight=4;overflow=hidden;rotatable=0;points=[[0,0.5],[1,0.5]];portConstraint=eastwest;whiteSpace=wrap;html=1;" vertex="1" parent="7P5oypHRxxhwJwh_hLry-46">
          <mxGeometry y="26" width="310" height="24" as="geometry" />
        </mxCell>
        <mxCell id="7P5oypHRxxhwJwh_hLry-48" value="" style="line;strokeWidth=1;fillColor=none;align=left;verticalAlign=middle;spacingTop=-1;spacingLeft=3;spacingRight=3;rotatable=0;labelPosition=right;points=[];portConstraint=eastwest;strokeColor=inherit;" vertex="1" parent="7P5oypHRxxhwJwh_hLry-46">
          <mxGeometry y="50" width="310" height="10" as="geometry" />
        </mxCell>
        <mxCell id="7P5oypHRxxhwJwh_hLry-49" value="&lt;div&gt;+ Utility()&lt;/div&gt;&lt;div&gt;+ setters():&lt;/div&gt;&lt;div&gt;+ getters():&lt;/div&gt;&lt;div&gt;+ getEmployeesWithHighWorkDuration(): List&amp;lt;Employee&amp;gt;&lt;/div&gt;&lt;div&gt;+ getTaskStatusCount(): Map&amp;lt;String, Map&amp;lt;String, Integer&amp;gt;&amp;gt;&lt;/div&gt;&lt;div&gt;+ createTask(idTask: int, nameTask: String, startHour: int, endHour: int): void&lt;/div&gt;&lt;div&gt;+ createTask(idTask: int, nameTask: String, tasks: List&amp;lt;Task&amp;gt;): void&lt;/div&gt;&lt;div&gt;+ createEmployee(idEmployee: int, name: String): void&lt;/div&gt;&lt;div&gt;+ findTaskById(idTask: int): Task&lt;/div&gt;&lt;div&gt;&lt;br&gt;&lt;/div&gt;" style="text;strokeColor=none;fillColor=none;align=left;verticalAlign=top;spacingLeft=4;spacingRight=4;overflow=hidden;rotatable=0;points=[[0,0.5],[1,0.5]];portConstraint=eastwest;whiteSpace=wrap;html=1;" vertex="1" parent="7P5oypHRxxhwJwh_hLry-46">
          <mxGeometry y="60" width="310" height="200" as="geometry" />
        </mxCell>
        <mxCell id="7P5oypHRxxhwJwh_hLry-50" value="TaskManagementSerialization" style="swimlane;fontStyle=1;align=center;verticalAlign=top;childLayout=stackLayout;horizontal=1;startSize=26;horizontalStack=0;resizeParent=1;resizeParentMax=0;resizeLast=0;collapsible=1;marginBottom=0;whiteSpace=wrap;html=1;" vertex="1" parent="1">
          <mxGeometry x="-390" y="940" width="310" height="116" as="geometry" />
        </mxCell>
        <mxCell id="7P5oypHRxxhwJwh_hLry-52" value="" style="line;strokeWidth=1;fillColor=none;align=left;verticalAlign=middle;spacingTop=-1;spacingLeft=3;spacingRight=3;rotatable=0;labelPosition=right;points=[];portConstraint=eastwest;strokeColor=inherit;" vertex="1" parent="7P5oypHRxxhwJwh_hLry-50">
          <mxGeometry y="26" width="310" height="10" as="geometry" />
        </mxCell>
        <mxCell id="7P5oypHRxxhwJwh_hLry-53" value="&lt;div&gt;+ saveData(tasksMap: Map&amp;lt;Employee, List&amp;lt;Task&amp;gt;&amp;gt;, tasksList: List&amp;lt;Task&amp;gt;, fileName: String): void&lt;/div&gt;&lt;div&gt;+ loadData(tasksMap: Map&amp;lt;Employee, List&amp;lt;Task&amp;gt;&amp;gt;, tasksList: List&amp;lt;Task&amp;gt;, fileName: String): void&lt;/div&gt;" style="text;strokeColor=none;fillColor=none;align=left;verticalAlign=top;spacingLeft=4;spacingRight=4;overflow=hidden;rotatable=0;points=[[0,0.5],[1,0.5]];portConstraint=eastwest;whiteSpace=wrap;html=1;" vertex="1" parent="7P5oypHRxxhwJwh_hLry-50">
          <mxGeometry y="36" width="310" height="80" as="geometry" />
        </mxCell>
        <mxCell id="7P5oypHRxxhwJwh_hLry-55" value="Extends" style="endArrow=block;endSize=16;endFill=0;html=1;rounded=0;entryX=0.195;entryY=1.008;entryDx=0;entryDy=0;entryPerimeter=0;exitX=0.5;exitY=0;exitDx=0;exitDy=0;" edge="1" parent="1" source="7P5oypHRxxhwJwh_hLry-27" target="7P5oypHRxxhwJwh_hLry-20">
          <mxGeometry width="160" relative="1" as="geometry">
            <mxPoint x="-230" y="359" as="sourcePoint" />
            <mxPoint x="-70" y="359" as="targetPoint" />
          </mxGeometry>
        </mxCell>
        <mxCell id="7P5oypHRxxhwJwh_hLry-56" value="Extends" style="endArrow=block;endSize=16;endFill=0;html=1;rounded=0;exitX=0.5;exitY=0;exitDx=0;exitDy=0;entryX=0.358;entryY=0.994;entryDx=0;entryDy=0;entryPerimeter=0;" edge="1" parent="1" target="7P5oypHRxxhwJwh_hLry-20">
          <mxGeometry width="160" relative="1" as="geometry">
            <mxPoint x="50" y="360" as="sourcePoint" />
            <mxPoint x="-30" y="290" as="targetPoint" />
          </mxGeometry>
        </mxCell>
        <mxCell id="7P5oypHRxxhwJwh_hLry-57" value="" style="endArrow=diamondThin;endFill=0;endSize=24;html=1;rounded=0;edgeStyle=orthogonalEdgeStyle;entryX=1;entryY=0.25;entryDx=0;entryDy=0;" edge="1" parent="1" target="7P5oypHRxxhwJwh_hLry-33">
          <mxGeometry width="160" relative="1" as="geometry">
            <mxPoint x="90" y="220" as="sourcePoint" />
            <mxPoint x="240" y="340" as="targetPoint" />
            <Array as="points">
              <mxPoint x="90" y="221" />
              <mxPoint x="241" y="221" />
              <mxPoint x="241" y="405" />
            </Array>
          </mxGeometry>
        </mxCell>
        <mxCell id="7P5oypHRxxhwJwh_hLry-59" value="" style="html=1;labelBackgroundColor=#ffffff;jettySize=auto;orthogonalLoop=1;fontSize=14;rounded=0;jumpStyle=gap;startArrow=none;endArrow=block;endFill=0;strokeWidth=1;dashed=1;entryX=1;entryY=0.75;entryDx=0;entryDy=0;" edge="1" parent="1" source="7P5oypHRxxhwJwh_hLry-17" target="7P5oypHRxxhwJwh_hLry-40">
          <mxGeometry width="48" height="48" relative="1" as="geometry">
            <mxPoint x="-209" y="90" as="sourcePoint" />
            <mxPoint x="-161" y="42" as="targetPoint" />
          </mxGeometry>
        </mxCell>
        <mxCell id="7P5oypHRxxhwJwh_hLry-60" value="" style="html=1;labelBackgroundColor=#ffffff;jettySize=auto;orthogonalLoop=1;fontSize=14;rounded=0;jumpStyle=gap;startArrow=none;endArrow=block;endFill=0;strokeWidth=1;dashed=1;entryX=0;entryY=0.75;entryDx=0;entryDy=0;" edge="1" parent="1" target="7P5oypHRxxhwJwh_hLry-40">
          <mxGeometry width="48" height="48" relative="1" as="geometry">
            <mxPoint x="-580" y="90" as="sourcePoint" />
            <mxPoint x="-830" y="-15" as="targetPoint" />
          </mxGeometry>
        </mxCell>
        <mxCell id="7P5oypHRxxhwJwh_hLry-61" value="" style="html=1;labelBackgroundColor=#ffffff;jettySize=auto;orthogonalLoop=1;fontSize=14;rounded=0;jumpStyle=gap;startArrow=none;endArrow=block;endFill=0;strokeWidth=1;dashed=1;entryX=0;entryY=1;entryDx=0;entryDy=0;" edge="1" parent="1" target="7P5oypHRxxhwJwh_hLry-40">
          <mxGeometry width="48" height="48" relative="1" as="geometry">
            <mxPoint x="-620" y="417" as="sourcePoint" />
            <mxPoint x="-480" y="380" as="targetPoint" />
          </mxGeometry>
        </mxCell>
        <mxCell id="7P5oypHRxxhwJwh_hLry-62" value="" style="endArrow=diamondThin;endFill=0;endSize=24;html=1;rounded=0;exitX=0.5;exitY=1;exitDx=0;exitDy=0;entryX=0.397;entryY=0;entryDx=0;entryDy=0;entryPerimeter=0;" edge="1" parent="1" source="7P5oypHRxxhwJwh_hLry-13" target="7P5oypHRxxhwJwh_hLry-41">
          <mxGeometry width="160" relative="1" as="geometry">
            <mxPoint x="-740" y="310" as="sourcePoint" />
            <mxPoint x="-580" y="310" as="targetPoint" />
          </mxGeometry>
        </mxCell>
        <mxCell id="7P5oypHRxxhwJwh_hLry-63" value="" style="endArrow=diamondThin;endFill=0;endSize=24;html=1;rounded=0;exitX=0;exitY=0.5;exitDx=0;exitDy=0;entryX=0.78;entryY=-0.012;entryDx=0;entryDy=0;entryPerimeter=0;" edge="1" parent="1" source="7P5oypHRxxhwJwh_hLry-20" target="7P5oypHRxxhwJwh_hLry-41">
          <mxGeometry width="160" relative="1" as="geometry">
            <mxPoint x="-439" y="250" as="sourcePoint" />
            <mxPoint x="-440" y="394" as="targetPoint" />
          </mxGeometry>
        </mxCell>
        <mxCell id="7P5oypHRxxhwJwh_hLry-64" value="" style="endArrow=diamondThin;endFill=0;endSize=24;html=1;rounded=0;exitX=0.5;exitY=1.006;exitDx=0;exitDy=0;exitPerimeter=0;" edge="1" parent="1" source="7P5oypHRxxhwJwh_hLry-44">
          <mxGeometry width="160" relative="1" as="geometry">
            <mxPoint x="-640" y="670" as="sourcePoint" />
            <mxPoint x="-640" y="740" as="targetPoint" />
          </mxGeometry>
        </mxCell>
        <mxCell id="7P5oypHRxxhwJwh_hLry-67" value="HelloApplication" style="swimlane;fontStyle=1;align=center;verticalAlign=top;childLayout=stackLayout;horizontal=1;startSize=26;horizontalStack=0;resizeParent=1;resizeParentMax=0;resizeLast=0;collapsible=1;marginBottom=0;whiteSpace=wrap;html=1;" vertex="1" parent="1">
          <mxGeometry x="-420" y="700" width="310" height="80" as="geometry" />
        </mxCell>
        <mxCell id="7P5oypHRxxhwJwh_hLry-68" value="" style="line;strokeWidth=1;fillColor=none;align=left;verticalAlign=middle;spacingTop=-1;spacingLeft=3;spacingRight=3;rotatable=0;labelPosition=right;points=[];portConstraint=eastwest;strokeColor=inherit;" vertex="1" parent="7P5oypHRxxhwJwh_hLry-67">
          <mxGeometry y="26" width="310" height="10" as="geometry" />
        </mxCell>
        <mxCell id="7P5oypHRxxhwJwh_hLry-69" value="&lt;div&gt;+ start(stage: Stage): void&lt;/div&gt;&lt;div&gt;+main(args: String[]): void&lt;/div&gt;" style="text;strokeColor=none;fillColor=none;align=left;verticalAlign=top;spacingLeft=4;spacingRight=4;overflow=hidden;rotatable=0;points=[[0,0.5],[1,0.5]];portConstraint=eastwest;whiteSpace=wrap;html=1;" vertex="1" parent="7P5oypHRxxhwJwh_hLry-67">
          <mxGeometry y="36" width="310" height="44" as="geometry" />
        </mxCell>
        <mxCell id="7P5oypHRxxhwJwh_hLry-70" value="" style="endArrow=open;endFill=1;endSize=12;html=1;rounded=0;exitX=0.387;exitY=1.045;exitDx=0;exitDy=0;exitPerimeter=0;entryX=0.297;entryY=-0.017;entryDx=0;entryDy=0;entryPerimeter=0;" edge="1" parent="1" source="7P5oypHRxxhwJwh_hLry-69" target="7P5oypHRxxhwJwh_hLry-50">
          <mxGeometry width="160" relative="1" as="geometry">
            <mxPoint x="-390" y="880" as="sourcePoint" />
            <mxPoint x="-240" y="820" as="targetPoint" />
          </mxGeometry>
        </mxCell>
        <mxCell id="7P5oypHRxxhwJwh_hLry-71" value="" style="endArrow=diamondThin;endFill=0;endSize=24;html=1;rounded=0;exitX=1.01;exitY=0.867;exitDx=0;exitDy=0;exitPerimeter=0;" edge="1" parent="1" source="7P5oypHRxxhwJwh_hLry-44">
          <mxGeometry width="160" relative="1" as="geometry">
            <mxPoint x="-370" y="621" as="sourcePoint" />
            <mxPoint x="-370" y="700" as="targetPoint" />
          </mxGeometry>
        </mxCell>
        <mxCell id="7P5oypHRxxhwJwh_hLry-72" value="HomePageController" style="swimlane;fontStyle=1;align=center;verticalAlign=top;childLayout=stackLayout;horizontal=1;startSize=26;horizontalStack=0;resizeParent=1;resizeParentMax=0;resizeLast=0;collapsible=1;marginBottom=0;whiteSpace=wrap;html=1;" vertex="1" parent="1">
          <mxGeometry x="330" y="430" width="300" height="210" as="geometry" />
        </mxCell>
        <mxCell id="7P5oypHRxxhwJwh_hLry-73" value="&lt;div&gt;- manageButton: Button&lt;/div&gt;&lt;div&gt;- modifyStatusButton: Button&lt;/div&gt;&lt;div&gt;- statisticsButton: Button&lt;/div&gt;&lt;div&gt;- viewEmployeesButton: Button&lt;/div&gt;" style="text;strokeColor=none;fillColor=none;align=left;verticalAlign=top;spacingLeft=4;spacingRight=4;overflow=hidden;rotatable=0;points=[[0,0.5],[1,0.5]];portConstraint=eastwest;whiteSpace=wrap;html=1;" vertex="1" parent="7P5oypHRxxhwJwh_hLry-72">
          <mxGeometry y="26" width="300" height="64" as="geometry" />
        </mxCell>
        <mxCell id="7P5oypHRxxhwJwh_hLry-74" value="" style="line;strokeWidth=1;fillColor=none;align=left;verticalAlign=middle;spacingTop=-1;spacingLeft=3;spacingRight=3;rotatable=0;labelPosition=right;points=[];portConstraint=eastwest;strokeColor=inherit;" vertex="1" parent="7P5oypHRxxhwJwh_hLry-72">
          <mxGeometry y="90" width="300" height="8" as="geometry" />
        </mxCell>
        <mxCell id="7P5oypHRxxhwJwh_hLry-75" value="&lt;div&gt;- manageButtonOnAction(event: ActionEvent): void&lt;/div&gt;&lt;div&gt;- modifyStatusButtonOnAction(event: ActionEvent): void&lt;/div&gt;&lt;div&gt;- statisticsButtonOnAction(event: ActionEvent): void&lt;/div&gt;&lt;div&gt;- viewEmployeesButtonOnAction(event: ActionEvent): void&lt;/div&gt;&lt;div&gt;- loadScene(button: Button, fxmlFile: String): void&lt;/div&gt;" style="text;strokeColor=none;fillColor=none;align=left;verticalAlign=top;spacingLeft=4;spacingRight=4;overflow=hidden;rotatable=0;points=[[0,0.5],[1,0.5]];portConstraint=eastwest;whiteSpace=wrap;html=1;" vertex="1" parent="7P5oypHRxxhwJwh_hLry-72">
          <mxGeometry y="98" width="300" height="112" as="geometry" />
        </mxCell>
        <mxCell id="7P5oypHRxxhwJwh_hLry-76" value="ManageEmployeesAndTasksController" style="swimlane;fontStyle=1;align=center;verticalAlign=top;childLayout=stackLayout;horizontal=1;startSize=26;horizontalStack=0;resizeParent=1;resizeParentMax=0;resizeLast=0;collapsible=1;marginBottom=0;whiteSpace=wrap;html=1;" vertex="1" parent="1">
          <mxGeometry x="630" y="680" width="340" height="420" as="geometry" />
        </mxCell>
        <mxCell id="7P5oypHRxxhwJwh_hLry-77" value="&lt;div&gt;- backButton: Button&lt;/div&gt;&lt;div&gt;- addEmployeeButton: Button&lt;/div&gt;&lt;div&gt;- nameEmployeeTextField: TextField&lt;/div&gt;&lt;div&gt;- idEmployeeTextField: TextField&lt;/div&gt;&lt;div&gt;- idTasktextField: TextField&lt;/div&gt;&lt;div&gt;- nameTaskTextField: TextField&lt;/div&gt;&lt;div&gt;- taskTypeBox: ChoiceBox&amp;lt;String&amp;gt;&lt;/div&gt;&lt;div&gt;- startHourTextField: TextField&lt;/div&gt;&lt;div&gt;- endHourTextField: TextField&lt;/div&gt;&lt;div&gt;- taskTableView: TableView&amp;lt;Task&amp;gt;&lt;/div&gt;&lt;div&gt;- addTaskButton: Button&lt;/div&gt;&lt;div&gt;- idColumn: TableColumn&amp;lt;Task, Integer&amp;gt;&lt;/div&gt;&lt;div&gt;- nameColumn: TableColumn&amp;lt;TaskString&amp;gt;&lt;/div&gt;&lt;div&gt;- assignTaskButton: Button&lt;/div&gt;&lt;div&gt;- idTaskAssigTextField: TextField&lt;/div&gt;&lt;div&gt;- idEmployeeAssigTextField: TextField&lt;/div&gt;&lt;div&gt;&lt;br&gt;&lt;/div&gt;&lt;div&gt;&lt;br&gt;&lt;/div&gt;" style="text;strokeColor=none;fillColor=none;align=left;verticalAlign=top;spacingLeft=4;spacingRight=4;overflow=hidden;rotatable=0;points=[[0,0.5],[1,0.5]];portConstraint=eastwest;whiteSpace=wrap;html=1;" vertex="1" parent="7P5oypHRxxhwJwh_hLry-76">
          <mxGeometry y="26" width="340" height="244" as="geometry" />
        </mxCell>
        <mxCell id="7P5oypHRxxhwJwh_hLry-78" value="" style="line;strokeWidth=1;fillColor=none;align=left;verticalAlign=middle;spacingTop=-1;spacingLeft=3;spacingRight=3;rotatable=0;labelPosition=right;points=[];portConstraint=eastwest;strokeColor=inherit;" vertex="1" parent="7P5oypHRxxhwJwh_hLry-76">
          <mxGeometry y="270" width="340" height="8" as="geometry" />
        </mxCell>
        <mxCell id="7P5oypHRxxhwJwh_hLry-79" value="&lt;div&gt;+ assignTaskButtonOnAction(event: ActionEvent): void&lt;/div&gt;&lt;div&gt;+ initialize(): void&lt;/div&gt;&lt;div&gt;+ addTaskButtonOnAction(event: ActionEvent): void&amp;nbsp;&lt;/div&gt;&lt;div&gt;- loadTasksIntoTable():void&lt;/div&gt;&lt;div&gt;- addSimpleTask(taskId: int, taskName: String): void&lt;/div&gt;&lt;div&gt;- addComplexTask(taskId: in, taskName: String): void&lt;/div&gt;&lt;div&gt;+ addEmployeeButtonOnAction(event: ActionEvent): void&lt;/div&gt;&lt;div&gt;- backButtonOnAction(event: ActionEvent): void&lt;/div&gt;&lt;div&gt;- loadScene(button: Button, fxmlFile: String): void&lt;/div&gt;" style="text;strokeColor=none;fillColor=none;align=left;verticalAlign=top;spacingLeft=4;spacingRight=4;overflow=hidden;rotatable=0;points=[[0,0.5],[1,0.5]];portConstraint=eastwest;whiteSpace=wrap;html=1;" vertex="1" parent="7P5oypHRxxhwJwh_hLry-76">
          <mxGeometry y="278" width="340" height="142" as="geometry" />
        </mxCell>
        <mxCell id="7P5oypHRxxhwJwh_hLry-81" value="ModifyTaskStatusController" style="swimlane;fontStyle=1;align=center;verticalAlign=top;childLayout=stackLayout;horizontal=1;startSize=26;horizontalStack=0;resizeParent=1;resizeParentMax=0;resizeLast=0;collapsible=1;marginBottom=0;whiteSpace=wrap;html=1;" vertex="1" parent="1">
          <mxGeometry x="-50" y="600" width="320" height="170" as="geometry" />
        </mxCell>
        <mxCell id="7P5oypHRxxhwJwh_hLry-82" value="&lt;div&gt;- backButton: Button&lt;/div&gt;&lt;div&gt;- modifyStatusButton: Button&lt;/div&gt;&lt;div&gt;- taskIdTextField: TextField&lt;/div&gt;&lt;div&gt;- statusChoiceBox: ChoiceBox&amp;lt;String&amp;gt;&lt;/div&gt;" style="text;strokeColor=none;fillColor=none;align=left;verticalAlign=top;spacingLeft=4;spacingRight=4;overflow=hidden;rotatable=0;points=[[0,0.5],[1,0.5]];portConstraint=eastwest;whiteSpace=wrap;html=1;" vertex="1" parent="7P5oypHRxxhwJwh_hLry-81">
          <mxGeometry y="26" width="320" height="64" as="geometry" />
        </mxCell>
        <mxCell id="7P5oypHRxxhwJwh_hLry-83" value="" style="line;strokeWidth=1;fillColor=none;align=left;verticalAlign=middle;spacingTop=-1;spacingLeft=3;spacingRight=3;rotatable=0;labelPosition=right;points=[];portConstraint=eastwest;strokeColor=inherit;" vertex="1" parent="7P5oypHRxxhwJwh_hLry-81">
          <mxGeometry y="90" width="320" height="8" as="geometry" />
        </mxCell>
        <mxCell id="7P5oypHRxxhwJwh_hLry-84" value="&lt;div&gt;- initialize(): void&lt;/div&gt;&lt;div&gt;- modifyStatusButtonOnAction(event: ActionEvent): void&lt;/div&gt;&lt;div&gt;- backButtonOnAction(event: ActionEvent): void&lt;/div&gt;&lt;div&gt;-loadScene(button: Button, fxmlFile: String): void&lt;/div&gt;" style="text;strokeColor=none;fillColor=none;align=left;verticalAlign=top;spacingLeft=4;spacingRight=4;overflow=hidden;rotatable=0;points=[[0,0.5],[1,0.5]];portConstraint=eastwest;whiteSpace=wrap;html=1;" vertex="1" parent="7P5oypHRxxhwJwh_hLry-81">
          <mxGeometry y="98" width="320" height="72" as="geometry" />
        </mxCell>
        <mxCell id="7P5oypHRxxhwJwh_hLry-85" value="StatisticsController" style="swimlane;fontStyle=1;align=center;verticalAlign=top;childLayout=stackLayout;horizontal=1;startSize=26;horizontalStack=0;resizeParent=1;resizeParentMax=0;resizeLast=0;collapsible=1;marginBottom=0;whiteSpace=wrap;html=1;" vertex="1" parent="1">
          <mxGeometry x="-10" y="860" width="400" height="290" as="geometry" />
        </mxCell>
        <mxCell id="7P5oypHRxxhwJwh_hLry-86" value="&lt;div&gt;- backButton: Button&lt;/div&gt;&lt;div&gt;- employeeStatsTableView: TableView&amp;lt;Employee&amp;gt;&lt;/div&gt;&lt;div&gt;- employeeNameColumn: TableColumn&amp;lt;Employee, String&amp;gt;&lt;/div&gt;&lt;div&gt;- workDurationColumn: TableColumn&amp;lt;Employee, Integer&amp;gt;&lt;/div&gt;&lt;div&gt;- taskStatusTableView: TableView&amp;lt;Map.Entry&amp;lt;String, Map&amp;lt;String, Integer&amp;gt;&amp;gt;&amp;gt;&lt;/div&gt;&lt;div&gt;- employeeNameStatusColumn: TableColumn&amp;lt;Map.Entry&amp;lt;String, Map&amp;lt;String, Integer&amp;gt;&amp;gt;, Integer&lt;/div&gt;&lt;div&gt;- completedTasksColumn: TableColumn&amp;lt;Map.Entry&amp;lt;String, Map&amp;lt;String, Integer&amp;gt;&amp;gt;, Integer&lt;/div&gt;&lt;div&gt;- uncompletedTasksColumn: TableColumn&amp;lt;Map.Entry&amp;lt;String, Map&amp;lt;String, Integer&amp;gt;&amp;gt;, Integer&lt;/div&gt;" style="text;strokeColor=none;fillColor=none;align=left;verticalAlign=top;spacingLeft=4;spacingRight=4;overflow=hidden;rotatable=0;points=[[0,0.5],[1,0.5]];portConstraint=eastwest;whiteSpace=wrap;html=1;" vertex="1" parent="7P5oypHRxxhwJwh_hLry-85">
          <mxGeometry y="26" width="400" height="184" as="geometry" />
        </mxCell>
        <mxCell id="7P5oypHRxxhwJwh_hLry-87" value="" style="line;strokeWidth=1;fillColor=none;align=left;verticalAlign=middle;spacingTop=-1;spacingLeft=3;spacingRight=3;rotatable=0;labelPosition=right;points=[];portConstraint=eastwest;strokeColor=inherit;" vertex="1" parent="7P5oypHRxxhwJwh_hLry-85">
          <mxGeometry y="210" width="400" height="8" as="geometry" />
        </mxCell>
        <mxCell id="7P5oypHRxxhwJwh_hLry-88" value="&lt;div&gt;- initialize(): void&lt;/div&gt;&lt;div&gt;- loadEmployeeStatsData(): void&lt;/div&gt;&lt;div&gt;- backbuttonOnAction(event: ActionEvent): void&lt;/div&gt;&lt;div&gt;- loadScene(): void&lt;/div&gt;&lt;div&gt;&lt;br&gt;&lt;/div&gt;" style="text;strokeColor=none;fillColor=none;align=left;verticalAlign=top;spacingLeft=4;spacingRight=4;overflow=hidden;rotatable=0;points=[[0,0.5],[1,0.5]];portConstraint=eastwest;whiteSpace=wrap;html=1;" vertex="1" parent="7P5oypHRxxhwJwh_hLry-85">
          <mxGeometry y="218" width="400" height="72" as="geometry" />
        </mxCell>
        <mxCell id="7P5oypHRxxhwJwh_hLry-89" value="ViewEmployeesTasksController" style="swimlane;fontStyle=1;align=center;verticalAlign=top;childLayout=stackLayout;horizontal=1;startSize=26;horizontalStack=0;resizeParent=1;resizeParentMax=0;resizeLast=0;collapsible=1;marginBottom=0;whiteSpace=wrap;html=1;" vertex="1" parent="1">
          <mxGeometry x="770" y="250" width="420" height="360" as="geometry" />
        </mxCell>
        <mxCell id="7P5oypHRxxhwJwh_hLry-90" value="&lt;div&gt;- backButton: Button&lt;/div&gt;&lt;div&gt;- employeeTaskTableView:&amp;nbsp; TableView&amp;lt;Map.Entry&amp;lt;Employee, List&amp;lt;Tasks&amp;gt;&amp;gt;&amp;gt;&lt;/div&gt;&lt;div&gt;- employeeNameColumn:TableColumn&amp;lt;Map.Entry&amp;lt;Employee, List&amp;lt;Tasks&amp;gt;&amp;gt;, String&amp;gt;&lt;/div&gt;&lt;div&gt;- taskNameColumn:TableColumn&amp;lt;Map.Entry&amp;lt;Employee, List&amp;lt;Tasks&amp;gt;&amp;gt;, String&amp;gt;&lt;/div&gt;&lt;div&gt;- totalDurationColumn:TableColumn&amp;lt;Map.Entry&amp;lt;Employee, List&amp;lt;Tasks&amp;gt;&amp;gt;, Integer&amp;gt;&lt;/div&gt;&lt;div&gt;- employeeIdColumn:TableColumn&amp;lt;Map.Entry&amp;lt;Employee, List&amp;lt;Tasks&amp;gt;&amp;gt;, Integer&amp;gt;&lt;/div&gt;&lt;div&gt;- allTaskTableView: TableView&amp;lt;Task&amp;gt;&lt;/div&gt;&lt;div&gt;- taskIdColumn: TableColumn&amp;lt;Task, Integer&amp;gt;&lt;/div&gt;&lt;div&gt;- taskNameColumn: TableColumn&amp;lt;Task, String&amp;gt;&lt;/div&gt;&lt;div&gt;- taskTypeColumn: TableColumn&amp;lt;Task, String&amp;gt;&lt;/div&gt;&lt;div&gt;- taskDurationColumn: TableColumn&amp;lt;Task, Integer&amp;gt;&lt;/div&gt;&lt;div&gt;- taskStatusColumn: TableColumn&amp;lt;Task, Integer&amp;gt;&lt;/div&gt;&lt;div&gt;&lt;br&gt;&lt;/div&gt;&lt;div&gt;&lt;br&gt;&lt;/div&gt;" style="text;strokeColor=none;fillColor=none;align=left;verticalAlign=top;spacingLeft=4;spacingRight=4;overflow=hidden;rotatable=0;points=[[0,0.5],[1,0.5]];portConstraint=eastwest;whiteSpace=wrap;html=1;" vertex="1" parent="7P5oypHRxxhwJwh_hLry-89">
          <mxGeometry y="26" width="420" height="244" as="geometry" />
        </mxCell>
        <mxCell id="7P5oypHRxxhwJwh_hLry-91" value="" style="line;strokeWidth=1;fillColor=none;align=left;verticalAlign=middle;spacingTop=-1;spacingLeft=3;spacingRight=3;rotatable=0;labelPosition=right;points=[];portConstraint=eastwest;strokeColor=inherit;" vertex="1" parent="7P5oypHRxxhwJwh_hLry-89">
          <mxGeometry y="270" width="420" height="8" as="geometry" />
        </mxCell>
        <mxCell id="7P5oypHRxxhwJwh_hLry-92" value="&lt;div&gt;- initialize(): void&lt;/div&gt;&lt;div&gt;- loadEmployeeTaskData(): void&lt;/div&gt;&lt;div&gt;- loadAllTasksData(): void&lt;/div&gt;&lt;div&gt;- backbuttonOnAction(event: ActionEvent): void&lt;/div&gt;&lt;div&gt;- loadScene(): void&lt;/div&gt;&lt;div&gt;&lt;br&gt;&lt;/div&gt;" style="text;strokeColor=none;fillColor=none;align=left;verticalAlign=top;spacingLeft=4;spacingRight=4;overflow=hidden;rotatable=0;points=[[0,0.5],[1,0.5]];portConstraint=eastwest;whiteSpace=wrap;html=1;" vertex="1" parent="7P5oypHRxxhwJwh_hLry-89">
          <mxGeometry y="278" width="420" height="82" as="geometry" />
        </mxCell>
        <mxCell id="7P5oypHRxxhwJwh_hLry-93" value="" style="endArrow=diamondThin;endFill=0;endSize=24;html=1;rounded=0;exitX=0.5;exitY=1.006;exitDx=0;exitDy=0;exitPerimeter=0;edgeStyle=orthogonalEdgeStyle;" edge="1" parent="1" target="7P5oypHRxxhwJwh_hLry-88">
          <mxGeometry width="160" relative="1" as="geometry">
            <mxPoint x="-660" y="1000" as="sourcePoint" />
            <mxPoint x="-660" y="1160" as="targetPoint" />
            <Array as="points">
              <mxPoint x="-660" y="1114" />
            </Array>
          </mxGeometry>
        </mxCell>
        <mxCell id="7P5oypHRxxhwJwh_hLry-100" value="" style="endArrow=open;endFill=1;endSize=12;html=1;rounded=0;exitX=0.804;exitY=-0.01;exitDx=0;exitDy=0;exitPerimeter=0;edgeStyle=orthogonalEdgeStyle;entryX=0;entryY=0.5;entryDx=0;entryDy=0;" edge="1" parent="1" target="7P5oypHRxxhwJwh_hLry-75">
          <mxGeometry width="160" relative="1" as="geometry">
            <mxPoint x="-290" y="701" as="sourcePoint" />
            <mxPoint x="-290" y="570" as="targetPoint" />
            <Array as="points">
              <mxPoint x="-290" y="584" />
            </Array>
          </mxGeometry>
        </mxCell>
        <mxCell id="7P5oypHRxxhwJwh_hLry-101" value="" style="endArrow=open;endFill=1;endSize=12;html=1;rounded=0;exitX=0.387;exitY=1.045;exitDx=0;exitDy=0;exitPerimeter=0;entryX=0.917;entryY=-0.009;entryDx=0;entryDy=0;entryPerimeter=0;" edge="1" parent="1" target="7P5oypHRxxhwJwh_hLry-85">
          <mxGeometry width="160" relative="1" as="geometry">
            <mxPoint x="410" y="640" as="sourcePoint" />
            <mxPoint x="412" y="796" as="targetPoint" />
          </mxGeometry>
        </mxCell>
        <mxCell id="7P5oypHRxxhwJwh_hLry-102" value="" style="endArrow=open;endFill=1;endSize=12;html=1;rounded=0;exitX=0.387;exitY=1.045;exitDx=0;exitDy=0;exitPerimeter=0;entryX=1.005;entryY=0.391;entryDx=0;entryDy=0;entryPerimeter=0;" edge="1" parent="1" target="7P5oypHRxxhwJwh_hLry-84">
          <mxGeometry width="160" relative="1" as="geometry">
            <mxPoint x="360" y="640" as="sourcePoint" />
            <mxPoint x="307" y="857" as="targetPoint" />
          </mxGeometry>
        </mxCell>
        <mxCell id="7P5oypHRxxhwJwh_hLry-103" value="" style="endArrow=open;endFill=1;endSize=12;html=1;rounded=0;exitX=0.667;exitY=1;exitDx=0;exitDy=0;exitPerimeter=0;" edge="1" parent="1" source="7P5oypHRxxhwJwh_hLry-75">
          <mxGeometry width="160" relative="1" as="geometry">
            <mxPoint x="690" y="610" as="sourcePoint" />
            <mxPoint x="630" y="820" as="targetPoint" />
          </mxGeometry>
        </mxCell>
        <mxCell id="7P5oypHRxxhwJwh_hLry-104" value="" style="endArrow=open;endFill=1;endSize=12;html=1;rounded=0;exitX=1.011;exitY=0.271;exitDx=0;exitDy=0;exitPerimeter=0;entryX=0;entryY=0.37;entryDx=0;entryDy=0;entryPerimeter=0;" edge="1" parent="1" source="7P5oypHRxxhwJwh_hLry-75" target="7P5oypHRxxhwJwh_hLry-92">
          <mxGeometry width="160" relative="1" as="geometry">
            <mxPoint x="650" y="560" as="sourcePoint" />
            <mxPoint x="597" y="777" as="targetPoint" />
          </mxGeometry>
        </mxCell>
        <mxCell id="7P5oypHRxxhwJwh_hLry-105" value="" style="endArrow=open;endFill=1;endSize=12;html=1;rounded=0;exitX=0;exitY=0.5;exitDx=0;exitDy=0;entryX=1.006;entryY=0.389;entryDx=0;entryDy=0;entryPerimeter=0;" edge="1" parent="1" source="7P5oypHRxxhwJwh_hLry-82" target="7P5oypHRxxhwJwh_hLry-44">
          <mxGeometry width="160" relative="1" as="geometry">
            <mxPoint x="-170" y="630" as="sourcePoint" />
            <mxPoint x="-223" y="847" as="targetPoint" />
          </mxGeometry>
        </mxCell>
        <mxCell id="7P5oypHRxxhwJwh_hLry-106" value="" style="endArrow=open;endFill=1;endSize=12;html=1;rounded=0;edgeStyle=orthogonalEdgeStyle;entryX=1;entryY=0;entryDx=0;entryDy=0;" edge="1" parent="1" source="7P5oypHRxxhwJwh_hLry-77" target="7P5oypHRxxhwJwh_hLry-17">
          <mxGeometry width="160" relative="1" as="geometry">
            <mxPoint x="1170" y="940" as="sourcePoint" />
            <mxPoint x="1250" y="70" as="targetPoint" />
            <Array as="points">
              <mxPoint x="1251" y="828" />
              <mxPoint x="1251" y="70" />
              <mxPoint x="100" y="70" />
            </Array>
          </mxGeometry>
        </mxCell>
        <mxCell id="7P5oypHRxxhwJwh_hLry-108" value="" style="endArrow=open;endFill=1;endSize=12;html=1;rounded=0;edgeStyle=orthogonalEdgeStyle;exitX=1.005;exitY=0.276;exitDx=0;exitDy=0;exitPerimeter=0;entryX=0.25;entryY=0;entryDx=0;entryDy=0;" edge="1" parent="1" source="7P5oypHRxxhwJwh_hLry-77" target="7P5oypHRxxhwJwh_hLry-13">
          <mxGeometry width="160" relative="1" as="geometry">
            <mxPoint x="1120" y="770" as="sourcePoint" />
            <mxPoint x="-720" y="-40" as="targetPoint" />
            <Array as="points">
              <mxPoint x="972" y="770" />
              <mxPoint x="1401" y="770" />
              <mxPoint x="1401" y="12" />
              <mxPoint x="250" y="12" />
              <mxPoint x="250" y="-50" />
              <mxPoint x="-710" y="-50" />
              <mxPoint x="-710" y="-40" />
              <mxPoint x="-715" y="-40" />
            </Array>
          </mxGeometry>
        </mxCell>
        <mxCell id="7P5oypHRxxhwJwh_hLry-110" value="" style="endArrow=diamondThin;endFill=0;endSize=24;html=1;rounded=0;exitX=0.5;exitY=1.006;exitDx=0;exitDy=0;exitPerimeter=0;edgeStyle=orthogonalEdgeStyle;entryX=0.396;entryY=1.007;entryDx=0;entryDy=0;entryPerimeter=0;" edge="1" parent="1" target="7P5oypHRxxhwJwh_hLry-79">
          <mxGeometry width="160" relative="1" as="geometry">
            <mxPoint x="-790" y="1000" as="sourcePoint" />
            <mxPoint x="770" y="1200" as="targetPoint" />
            <Array as="points">
              <mxPoint x="-790" y="1200" />
              <mxPoint x="765" y="1200" />
            </Array>
          </mxGeometry>
        </mxCell>
        <mxCell id="7P5oypHRxxhwJwh_hLry-112" value="" style="endArrow=diamondThin;endFill=0;endSize=24;html=1;rounded=0;exitX=0.323;exitY=1.017;exitDx=0;exitDy=0;exitPerimeter=0;edgeStyle=orthogonalEdgeStyle;entryX=0.857;entryY=1;entryDx=0;entryDy=0;entryPerimeter=0;" edge="1" parent="1" source="7P5oypHRxxhwJwh_hLry-49" target="7P5oypHRxxhwJwh_hLry-92">
          <mxGeometry width="160" relative="1" as="geometry">
            <mxPoint x="-690" y="1120" as="sourcePoint" />
            <mxPoint x="1130" y="650" as="targetPoint" />
            <Array as="points">
              <mxPoint x="-690" y="1320" />
              <mxPoint x="1130" y="1320" />
            </Array>
          </mxGeometry>
        </mxCell>
        <mxCell id="7P5oypHRxxhwJwh_hLry-116" value="" style="endArrow=diamondThin;endFill=0;endSize=24;html=1;rounded=0;edgeStyle=orthogonalEdgeStyle;startArrow=none;startFill=0;exitX=1;exitY=0;exitDx=0;exitDy=0;" edge="1" parent="1" source="7P5oypHRxxhwJwh_hLry-41" target="7P5oypHRxxhwJwh_hLry-90">
          <mxGeometry width="160" relative="1" as="geometry">
            <mxPoint x="-470" y="-180" as="sourcePoint" />
            <mxPoint x="678" y="156.08" as="targetPoint" />
            <Array as="points">
              <mxPoint x="-470" y="420" />
              <mxPoint x="-470" y="-160" />
              <mxPoint x="311" y="-160" />
              <mxPoint x="311" y="398" />
            </Array>
          </mxGeometry>
        </mxCell>
        <mxCell id="7P5oypHRxxhwJwh_hLry-119" value="" style="endArrow=open;endFill=1;endSize=12;html=1;rounded=0;entryX=1;entryY=0.5;entryDx=0;entryDy=0;" edge="1" parent="1" target="7P5oypHRxxhwJwh_hLry-18">
          <mxGeometry width="160" relative="1" as="geometry">
            <mxPoint x="770" y="276" as="sourcePoint" />
            <mxPoint x="610" y="276" as="targetPoint" />
          </mxGeometry>
        </mxCell>
        <mxCell id="7P5oypHRxxhwJwh_hLry-120" value="" style="endArrow=open;endFill=1;endSize=12;html=1;rounded=0;edgeStyle=orthogonalEdgeStyle;entryX=0.852;entryY=-0.009;entryDx=0;entryDy=0;entryPerimeter=0;" edge="1" parent="1" target="7P5oypHRxxhwJwh_hLry-13">
          <mxGeometry width="160" relative="1" as="geometry">
            <mxPoint x="820" y="250" as="sourcePoint" />
            <mxPoint x="-600" y="-120" as="targetPoint" />
            <Array as="points">
              <mxPoint x="820" y="150" />
              <mxPoint x="740" y="150" />
              <mxPoint x="740" y="-120" />
              <mxPoint x="-607" y="-120" />
            </Array>
          </mxGeometry>
        </mxCell>
      </root>
    </mxGraphModel>
  </diagram>
</mxfile>
